<?xml version="1.0" encoding="UTF-8" standalone="no"?>
<!-- Created with Inkscape (http://www.inkscape.org/) -->

<svg
   width="49.684013mm"
   height="32.511448mm"
   viewBox="0 0 49.684013 32.511448"
   version="1.1"
   id="svg1"
   inkscape:version="1.3.2 (091e20e, 2023-11-25, custom)"
   sodipodi:docname="Barbershop.svg"
   xmlns:inkscape="http://www.inkscape.org/namespaces/inkscape"
   xmlns:sodipodi="http://sodipodi.sourceforge.net/DTD/sodipodi-0.dtd"
   xmlns="http://www.w3.org/2000/svg"
   xmlns:svg="http://www.w3.org/2000/svg">
  <sodipodi:namedview
     id="namedview1"
     pagecolor="#ffffff"
     bordercolor="#000000"
     borderopacity="0.25"
     inkscape:showpageshadow="2"
     inkscape:pageopacity="0.0"
     inkscape:pagecheckerboard="0"
     inkscape:deskcolor="#d1d1d1"
     inkscape:document-units="mm"
     inkscape:zoom="0.7349537"
     inkscape:cx="178.24252"
     inkscape:cy="227.90551"
     inkscape:window-width="1920"
     inkscape:window-height="1010"
     inkscape:window-x="1699"
     inkscape:window-y="-6"
     inkscape:window-maximized="1"
     inkscape:current-layer="layer1" />
  <defs
     id="defs1" />
  <g
     inkscape:label="Layer 1"
     inkscape:groupmode="layer"
     id="layer1"
     transform="translate(-57.943747,-88.106249)">
    <g
       id="g147"
       transform="translate(116.13933,-175.85652)">
      <rect
         style="fill:#b88100;stroke:none;stroke-width:1.23997;stroke-linecap:square;stroke-linejoin:round"
         id="rect24-3"
         width="44.015152"
         height="31.349937"
         x="-55.184895"
         y="264.67749"
         rx="6.3017139" />
      <rect
         style="fill:#ffc022;stroke:none;stroke-width:1.21971;stroke-linecap:square;stroke-linejoin:round"
         id="rect47-4"
         width="9.8654652"
         height="20.869255"
         x="-49.990753"
         y="275.04889" />
      <circle
         style="fill:#ffff3e;stroke:none;stroke-width:0.97204;stroke-linecap:square;stroke-linejoin:round"
         id="path53-4"
         cx="-43.169262"
         cy="286.05267"
         r="1.6442443" />
      <rect
         style="fill:#005c94;stroke:none;stroke-width:1.34543;stroke-linecap:square;stroke-linejoin:round"
         id="rect130"
         width="23.019419"
         height="19.441698"
         x="-36.582752"
         y="273.34805"
         rx="6.279222"
         ry="0" />
      <g
         id="g133"
         transform="matrix(0.44278255,-0.25564063,0.25564063,0.44278255,-115.66972,149.2741)">
        <path
           style="fill:#ffffff;stroke:#ffffff;stroke-width:1.62338;stroke-linecap:square;stroke-linejoin:round"
           d="m 16.741106,313.91761 22.826349,-2.38474 -22.826349,6.0811 z"
           id="path132" />
        <path
           style="fill:#ffffff;stroke:#ffffff;stroke-width:1.64144;stroke-linecap:square;stroke-linejoin:round"
           d="m 18.222224,319.2828 20.322496,2.73847 -20.322496,-6.9831 z"
           id="path133" />
        <path
           id="path130"
           style="fill:#b50000;stroke:#b50000;stroke-width:2.21207;stroke-linecap:square;stroke-linejoin:round"
           d="m 12.5127,306.49086 a 5.9664436,4.8755065 0 0 0 -5.9661915,4.8753 5.9664436,4.8755065 0 0 0 5.9661915,4.87583 5.9664436,4.8755065 0 0 0 5.966825,-4.87583 5.9664436,4.8755065 0 0 0 -5.966825,-4.8753 z m -0.337637,0.70836 a 4.986852,4.0750287 0 0 1 4.986791,4.07498 4.986852,4.0750287 0 0 1 -4.986791,4.07497 4.986852,4.0750287 0 0 1 -4.9867905,-4.07497 4.986852,4.0750287 0 0 1 4.9867905,-4.07498 z" />
        <path
           id="path131"
           style="fill:#b50000;stroke:#b50000;stroke-width:2.43776;stroke-linecap:square;stroke-linejoin:round"
           d="m 10.948497,315.41014 a 7.417709,4.7626625 0 0 0 -7.417396,4.76247 7.417709,4.7626625 0 0 0 7.417396,4.76296 7.417709,4.7626625 0 0 0 7.418183,-4.76296 7.417709,4.7626625 0 0 0 -7.418183,-4.76247 z m -0.419763,0.69196 a 6.1998436,3.9807119 0 0 1 6.199767,3.98066 6.1998436,3.9807119 0 0 1 -6.199767,3.98067 6.1998436,3.9807119 0 0 1 -6.1997676,-3.98067 6.1998436,3.9807119 0 0 1 6.1997676,-3.98066 z" />
      </g>
      <g
         id="g140"
         transform="translate(-31.3195,-39.686038)">
        <rect
           style="fill:#dc0000;stroke:none;stroke-width:1.33277;stroke-linecap:square;stroke-linejoin:round"
           id="rect133"
           width="21.366169"
           height="3.4962826"
           x="-335.29553"
           y="-24.105947"
           ry="0.42084879"
           transform="rotate(-90)" />
        <path
           id="rect135"
           style="fill:#ffffff;stroke:none;stroke-width:1.33277;stroke-linecap:square;stroke-linejoin:round"
           d="m -20.609679,314.38029 -3.496427,2.01952 v 2.32957 c 0.02554,-0.0104 0.05087,-0.022 0.07545,-0.0362 l 3.42098,-1.97507 z" />
        <path
           id="path136"
           style="fill:#19aeff;stroke:none;stroke-width:1.33277;stroke-linecap:square;stroke-linejoin:round"
           d="m -20.609679,318.0236 -3.496427,2.01952 v 2.32957 c 0.02554,-0.0104 0.05087,-0.022 0.07545,-0.0362 l 3.42098,-1.97507 z" />
        <path
           id="path137"
           style="fill:#ffffff;stroke:none;stroke-width:1.33277;stroke-linecap:square;stroke-linejoin:round"
           d="m -20.609679,321.92714 -3.496427,2.01952 v 2.32957 c 0.02554,-0.0104 0.05087,-0.022 0.07545,-0.0362 l 3.42098,-1.97507 z" />
        <path
           id="path138"
           style="fill:#19aeff;stroke:none;stroke-width:1.33277;stroke-linecap:square;stroke-linejoin:round"
           d="m -20.609679,325.50539 -3.496427,2.01952 v 2.32957 c 0.02554,-0.0104 0.05087,-0.022 0.07545,-0.0362 l 3.42098,-1.97507 z" />
        <path
           id="path139"
           style="fill:#ffffff;stroke:none;stroke-width:1.33277;stroke-linecap:square;stroke-linejoin:round"
           d="m -20.609679,329.66917 -3.496427,2.01952 v 2.32957 c 0.02554,-0.0104 0.05087,-0.022 0.07545,-0.0362 l 3.42098,-1.97507 z" />
        <rect
           style="fill:#666666;stroke:none;stroke-width:1.5;stroke-linecap:square;stroke-linejoin:round"
           id="rect139"
           width="4.5378709"
           height="2.1469498"
           x="-24.72245"
           y="311.95828"
           ry="0.44853622" />
        <rect
           style="fill:#666666;stroke:none;stroke-width:1.5;stroke-linecap:square;stroke-linejoin:round"
           id="rect140"
           width="4.5378709"
           height="2.1469498"
           x="-24.72245"
           y="334.01331"
           ry="0.44853622" />
      </g>
      <g
         id="g146"
         transform="translate(9.5735329,-39.686038)">
        <rect
           style="fill:#dc0000;stroke:none;stroke-width:1.33277;stroke-linecap:square;stroke-linejoin:round"
           id="rect141"
           width="21.366169"
           height="3.4962826"
           x="-335.29553"
           y="-24.105947"
           ry="0.42084879"
           transform="rotate(-90)" />
        <path
           id="path141"
           style="fill:#ffffff;stroke:none;stroke-width:1.33277;stroke-linecap:square;stroke-linejoin:round"
           d="m -20.609679,314.38029 -3.496427,2.01952 v 2.32957 c 0.02554,-0.0104 0.05087,-0.022 0.07545,-0.0362 l 3.42098,-1.97507 z" />
        <path
           id="path142"
           style="fill:#19aeff;stroke:none;stroke-width:1.33277;stroke-linecap:square;stroke-linejoin:round"
           d="m -20.609679,318.0236 -3.496427,2.01952 v 2.32957 c 0.02554,-0.0104 0.05087,-0.022 0.07545,-0.0362 l 3.42098,-1.97507 z" />
        <path
           id="path143"
           style="fill:#ffffff;stroke:none;stroke-width:1.33277;stroke-linecap:square;stroke-linejoin:round"
           d="m -20.609679,321.92714 -3.496427,2.01952 v 2.32957 c 0.02554,-0.0104 0.05087,-0.022 0.07545,-0.0362 l 3.42098,-1.97507 z" />
        <path
           id="path144"
           style="fill:#19aeff;stroke:none;stroke-width:1.33277;stroke-linecap:square;stroke-linejoin:round"
           d="m -20.609679,325.50539 -3.496427,2.01952 v 2.32957 c 0.02554,-0.0104 0.05087,-0.022 0.07545,-0.0362 l 3.42098,-1.97507 z" />
        <path
           id="path145"
           style="fill:#ffffff;stroke:none;stroke-width:1.33277;stroke-linecap:square;stroke-linejoin:round"
           d="m -20.609679,329.66917 -3.496427,2.01952 v 2.32957 c 0.02554,-0.0104 0.05087,-0.022 0.07545,-0.0362 l 3.42098,-1.97507 z" />
        <rect
           style="fill:#666666;stroke:none;stroke-width:1.5;stroke-linecap:square;stroke-linejoin:round"
           id="rect145"
           width="4.5378709"
           height="2.1469498"
           x="-24.72245"
           y="311.95828"
           ry="0.44853622" />
        <rect
           style="fill:#666666;stroke:none;stroke-width:1.5;stroke-linecap:square;stroke-linejoin:round"
           id="rect146"
           width="4.5378709"
           height="2.1469498"
           x="-24.72245"
           y="334.01331"
           ry="0.44853622" />
      </g>
      <rect
         style="fill:#dc0000;stroke:none;stroke-width:1.83586;stroke-linecap:square;stroke-linejoin:round"
         id="rect147"
         width="49.684013"
         height="8.3726768"
         x="-58.195583"
         y="263.96277"
         ry="0.50391108" />
    </g>
  </g>
</svg>
