<?xml version="1.0" encoding="UTF-8" standalone="no"?>
<!-- Created with Inkscape (http://www.inkscape.org/) -->

<svg
   width="115.13451mm"
   height="55.857082mm"
   viewBox="0 0 115.13451 55.857082"
   version="1.1"
   id="svg1"
   inkscape:version="1.3.2 (091e20e, 2023-11-25, custom)"
   sodipodi:docname="CityBoard.svg"
   xmlns:inkscape="http://www.inkscape.org/namespaces/inkscape"
   xmlns:sodipodi="http://sodipodi.sourceforge.net/DTD/sodipodi-0.dtd"
   xmlns="http://www.w3.org/2000/svg"
   xmlns:svg="http://www.w3.org/2000/svg">
  <sodipodi:namedview
     id="namedview1"
     pagecolor="#ffffff"
     bordercolor="#000000"
     borderopacity="0.25"
     inkscape:showpageshadow="2"
     inkscape:pageopacity="0.0"
     inkscape:pagecheckerboard="0"
     inkscape:deskcolor="#d1d1d1"
     inkscape:document-units="mm"
     inkscape:zoom="0.7349537"
     inkscape:cx="295.25669"
     inkscape:cy="300.0189"
     inkscape:window-width="1920"
     inkscape:window-height="1010"
     inkscape:window-x="1699"
     inkscape:window-y="-6"
     inkscape:window-maximized="1"
     inkscape:current-layer="layer1" />
  <defs
     id="defs1" />
  <g
     inkscape:label="Layer 1"
     inkscape:groupmode="layer"
     id="layer1"
     transform="translate(-10.054173,-50.535429)">
    <g
       id="g121"
       transform="matrix(0.19944774,0.1151512,-0.1151512,0.19944774,-347.09977,154.35305)">
      <rect
         style="fill:#ffc022;stroke-width:9.71955;stroke-linecap:square;stroke-linejoin:round"
         id="rect5"
         width="499.92749"
         height="242.53798"
         x="1550.8042"
         y="-450.78824"
         transform="rotate(-29.999999)"
         ry="7.9088473" />
      <rect
         style="fill:#19aeff;stroke-width:8.68424;stroke-linecap:square;stroke-linejoin:round"
         id="rect4"
         width="465.55035"
         height="207.91568"
         x="1569.1348"
         y="-432.36777"
         transform="rotate(-29.999999)"
         ry="6.7798591" />
      <path
         id="path21"
         style="fill:#ffc022;stroke-width:8.68424;stroke-linecap:square;stroke-linejoin:round"
         d="m 1176.6703,-1166.7652 35.9268,55.8366 10.2221,3.3221 14.2402,-7.2966 10.5364,-15.3096 1.5391,-10.1151 -12.1411,-11.4433 -19.2185,1.8694 3.5393,-6.6554 2.7374,-8.0397 -6.684,-9.9794 -17.064,-3.9891 z m 24.4902,2.4688 12.9121,6.3836 -16.7139,7.805 z m 18.8589,25.3181 12.9131,6.3856 -16.715,7.803 z" />
      <path
         id="path26"
         style="fill:#ffc022;stroke-width:8.68424;stroke-linecap:square;stroke-linejoin:round"
         d="m 1242.2063,-1205.0635 -10.6177,7.9749 27.4915,64.3962 10.5785,-5.6463 -13.2497,-26.9477 1.8067,-5.6576 21.8629,24.2833 15.2625,-11.1177 z m 5.2406,16.1138 12.9121,6.3836 -16.7139,7.805 z" />
      <path
         style="fill:#ffc022;stroke-width:8.68424;stroke-linecap:square;stroke-linejoin:round"
         d="m 1262.9661,-1217.0491 40.7707,53.0386 26.3339,-17.5104 -8.2682,-9.527 c -1.384,0.799 -17.0068,8.8962 -17.0068,8.8962 l -31.864,-44.8029 z"
         id="path27" />
      <path
         style="fill:#ffc022;stroke-width:8.68424;stroke-linecap:square;stroke-linejoin:round"
         d="m 1298.6024,-1237.6237 40.7707,53.0386 26.3339,-17.5104 -8.2682,-9.527 c -1.384,0.799 -17.0068,8.8962 -17.0068,8.8962 l -31.864,-44.8029 z"
         id="path28" />
      <path
         id="path29"
         style="fill:#ffc022;stroke-width:8.68424;stroke-linecap:square;stroke-linejoin:round"
         d="m 1341.5838,-1267.0511 2.5818,1.2766 28.2224,61.6682 31.2299,-19.4168 -33.319,-60.1067 z m 26.2042,-1.7518 c 0,0 14.7181,33.4806 16.3161,36.2484 1.598,2.7679 -12.5632,5.4086 -12.5632,5.4086 l -11.7733,-29.1835 z" />
      <path
         id="path30"
         style="fill:#ffc022;stroke-width:8.68424;stroke-linecap:square;stroke-linejoin:round"
         d="m 1379.9879,-1289.2237 2.5818,1.2766 28.2224,61.6682 31.2299,-19.4168 -33.319,-60.1067 z m 26.2042,-1.7518 c 0,0 14.7181,33.4806 16.3161,36.2484 1.598,2.7679 -12.5632,5.4086 -12.5632,5.4086 l -11.7733,-29.1835 z" />
      <path
         style="fill:#ffc022;stroke-width:8.68424;stroke-linecap:square;stroke-linejoin:round"
         d="m 1449.0354,-1251.1279 -26.9314,-61.0287 16.1685,-7.951 24.3661,30.2181 -7.6661,-41.2437 11.6707,-5.3542 17.4828,64.6387 -20.2668,11.2397 -19.6007,-28.3563 15.6094,33.4285 z"
         id="path31" />
      <path
         style="fill:#ffc022;stroke-width:8.68424;stroke-linecap:square;stroke-linejoin:round"
         d="m 1273.6108,-1107.3538 -24.1366,21.3162 42.2474,50.8022 31.4166,-22.2902 -8.0685,-9.181 -22.2357,14.2217 -25.5254,-34.6231 15.2089,-12.0101 z"
         id="path32" />
      <path
         style="fill:#ffc022;stroke-width:8.68424;stroke-linecap:square;stroke-linejoin:round"
         d="m 1289.3406,-1113.6676 36.2051,51.5228 8.6352,-8.2147 -38.2417,-52.6535 z"
         id="path33" />
      <path
         style="fill:#ffc022;stroke-width:8.68424;stroke-linecap:square;stroke-linejoin:round"
         d="m 1304.043,-1128.153 30.7103,-25.1116 10.758,12.2413 -14.3707,11.0648 33.1409,42.2205 -9.5948,4.1556 -30.6512,-39.5061 -8.7423,6.4313 z"
         id="path34" />
      <path
         style="fill:#ffc022;stroke-width:8.68424;stroke-linecap:square;stroke-linejoin:round"
         d="m 1341.1416,-1154.185 23.2956,12.3837 25.5684,44.2858 12.1095,-6.9913 -34.4073,-48.409 2.375,-23.0528 -11.9632,6.4456 1.0026,13.7218 -14.2427,-4.6937 z"
         id="path35" />
      <path
         style="fill:#0e232e;stroke:#0e232e;stroke-width:6.69895;stroke-linecap:square;stroke-linejoin:round"
         d="m 1591.6892,-1200.4043 6.8485,1.3838 c 0,0 -7.3491,6.3781 -4.7819,7.7428 2.5672,1.3646 7.8032,1.1884 7.8032,1.1884"
         id="path121" />
      <ellipse
         style="fill:#9ade00;stroke-width:8.29641;stroke-linecap:square;stroke-linejoin:round"
         id="path37"
         cx="1979.5991"
         cy="-300.24271"
         transform="rotate(-29.999999)"
         rx="51.27684"
         ry="62.341843" />
      <ellipse
         style="fill:#f1caff;stroke-width:7.15599;stroke-linecap:square;stroke-linejoin:round"
         id="path38"
         cx="1839.7189"
         cy="-296.62561"
         transform="rotate(-29.999999)"
         rx="49.349548"
         ry="52.608479" />
      <path
         style="fill:#009100;stroke-width:8.68424;stroke-linecap:square;stroke-linejoin:round"
         d="m 1547.3034,-1239.1275 12.0349,9.6588 29.9399,-20.0537 c 0,0 5.7565,-20.392 5.0502,-23.2134 -0.7063,-2.8214 -15.6371,4.8763 -15.6371,4.8763 l -3.5344,18.6478 -30.2362,9.1533 z"
         id="path45" />
      <ellipse
         style="fill:#dc0000;stroke-width:7.85442;stroke-linecap:square;stroke-linejoin:round"
         id="path36"
         cx="1922.4513"
         cy="-297.95187"
         transform="rotate(-29.999999)"
         rx="56.721092"
         ry="54.421589" />
      <circle
         style="fill:#0e232e;stroke-width:4.12878;stroke-linecap:square;stroke-linejoin:round"
         id="path39"
         cx="1819.2025"
         cy="-313.14346"
         r="5.7752118"
         transform="rotate(-29.999999)" />
      <circle
         style="fill:#0e232e;stroke-width:4.12878;stroke-linecap:square;stroke-linejoin:round"
         id="circle39"
         cx="1845.5699"
         cy="-313.14346"
         r="5.7752118"
         transform="rotate(-29.999999)" />
      <circle
         style="fill:#0e232e;stroke-width:4.12878;stroke-linecap:square;stroke-linejoin:round"
         id="circle40"
         cx="1899.1039"
         cy="-322.73163"
         r="5.7752118"
         transform="rotate(-29.999999)" />
      <circle
         style="fill:#0e232e;stroke-width:4.12878;stroke-linecap:square;stroke-linejoin:round"
         id="circle41"
         cx="1937.4565"
         cy="-322.73163"
         r="5.7752118"
         transform="rotate(-29.999999)" />
      <circle
         style="fill:#0e232e;stroke-width:4.12878;stroke-linecap:square;stroke-linejoin:round"
         id="circle42"
         cx="2000.5786"
         cy="-335.51584"
         r="5.7752118"
         transform="rotate(-29.999999)" />
      <circle
         style="fill:#0e232e;stroke-width:4.12878;stroke-linecap:square;stroke-linejoin:round"
         id="circle43"
         cx="1971.0151"
         cy="-338.71188"
         r="5.7752118"
         transform="rotate(-29.999999)" />
      <path
         style="fill:#d76cff;stroke-width:5.67816;stroke-linecap:square;stroke-linejoin:round"
         d="m 1418.6289,-1166.3631 25.3691,-21.8859 11.0736,12.9108 -6.9915,16.1016 -18.0976,10.4487 z"
         id="path43" />
      <path
         style="fill:#b50000;stroke-width:7.33336;stroke-linecap:square;stroke-linejoin:round"
         d="m 1490.3383,-1198.7655 c 0,0 12.8859,18.2707 16.9762,15.9091 4.0902,-2.3615 30.8128,-15.4524 30.8128,-15.4524 l -0.6393,-30.795 -12.789,3.4882 -8.56,13.5121 z"
         id="path44" />
      <path
         style="fill:#0e232e;stroke:#0e232e;stroke-width:8.68424;stroke-linecap:square;stroke-linejoin:round"
         d="m 1429.5725,-1207.4733 17.7369,-4.9565"
         id="path51"
         inkscape:transform-center-x="1.9321561"
         inkscape:transform-center-y="-0.18401486" />
      <path
         style="fill:#0e232e;stroke:#0e232e;stroke-width:8.68424;stroke-linecap:square;stroke-linejoin:round"
         d="m 1400.2854,-1188.2987 15.756,-9.5349"
         id="path58"
         inkscape:transform-center-x="1.9106727"
         inkscape:transform-center-y="0.34128839" />
      <path
         style="fill:#0e232e;stroke:#0e232e;stroke-width:8.68424;stroke-linecap:square;stroke-linejoin:round"
         d="m 1469.2105,-1241.8911 17.7369,-4.9565"
         id="path59"
         inkscape:transform-center-x="1.9321561"
         inkscape:transform-center-y="-0.18401486" />
      <path
         style="fill:#0e232e;stroke:#0e232e;stroke-width:8.68424;stroke-linecap:square;stroke-linejoin:round"
         d="m 1505.4604,-1258.2069 17.7369,-4.9565"
         id="path60"
         inkscape:transform-center-x="1.9321561"
         inkscape:transform-center-y="-0.18401486" />
      <path
         style="fill:#ba00ff;stroke:#0e232e;stroke-width:8.68424;stroke-linecap:square;stroke-linejoin:round"
         d="m 1518.2149,-1287.2523 17.7369,-4.9565"
         id="path72"
         inkscape:transform-center-x="1.9321561"
         inkscape:transform-center-y="-0.18401486" />
      <path
         style="fill:#0e232e;stroke:#0e232e;stroke-width:8.68424;stroke-linecap:square;stroke-linejoin:round"
         d="m 1555.4899,-1300.1473 12.8824,-13.1609"
         id="path73"
         inkscape:transform-center-x="1.7653085"
         inkscape:transform-center-y="0.80671806" />
      <path
         style="fill:#0e232e;stroke:#0e232e;stroke-width:6.69895;stroke-linecap:square;stroke-linejoin:round"
         d="m 1467.8628,-1133.5261 -2.2258,6.6229 c 0,0 9.1981,-3.1755 9.0964,-0.2699 -0.1018,2.9056 -2.8724,7.352 -2.8724,7.352"
         id="path119" />
      <rect
         style="fill:#ba00ff;stroke:none;stroke-width:12.5839;stroke-linecap:square;stroke-linejoin:round"
         id="rect117"
         width="36.754646"
         height="10.78669"
         x="1819.3408"
         y="-252.32245"
         transform="rotate(-29.999999)"
         ry="5.3933449" />
      <path
         style="fill:#0e232e;stroke:#0e232e;stroke-width:6.69895;stroke-linecap:square;stroke-linejoin:round"
         d="m 1536.7706,-1170.0809 6.8485,1.3838 c 0,0 -7.3491,6.3781 -4.7819,7.7428 2.5672,1.3646 7.8032,1.1884 7.8032,1.1884"
         id="path120" />
      <rect
         style="fill:#ff4141;stroke:none;stroke-width:12.5839;stroke-linecap:square;stroke-linejoin:round"
         id="rect118"
         width="36.754646"
         height="10.78669"
         x="1899.6417"
         y="-251.92294"
         transform="rotate(-29.999999)"
         ry="5.3933449" />
      <rect
         style="fill:#009100;stroke:none;stroke-width:12.5839;stroke-linecap:square;stroke-linejoin:round"
         id="rect119"
         width="36.754646"
         height="10.78669"
         x="1962.7638"
         y="-245.13132"
         transform="rotate(-29.999999)"
         ry="5.3933449" />
    </g>
  </g>
</svg>
