<?xml version="1.0" encoding="UTF-8" standalone="no"?>
<!-- Created with Inkscape (http://www.inkscape.org/) -->

<svg
   width="305.4205"
   height="503.93558"
   viewBox="0 0 80.809173 133.33295"
   version="1.1"
   id="svg1"
   inkscape:version="1.3.2 (091e20e, 2023-11-25, custom)"
   sodipodi:docname="DetFloatsworthSad.svg"
   xmlns:inkscape="http://www.inkscape.org/namespaces/inkscape"
   xmlns:sodipodi="http://sodipodi.sourceforge.net/DTD/sodipodi-0.dtd"
   xmlns="http://www.w3.org/2000/svg"
   xmlns:svg="http://www.w3.org/2000/svg">
  <sodipodi:namedview
     id="namedview1"
     pagecolor="#ffffff"
     bordercolor="#000000"
     borderopacity="0.25"
     inkscape:showpageshadow="2"
     inkscape:pageopacity="0.0"
     inkscape:pagecheckerboard="0"
     inkscape:deskcolor="#d1d1d1"
     inkscape:document-units="mm"
     inkscape:zoom="1.4378367"
     inkscape:cx="125.88356"
     inkscape:cy="186.04338"
     inkscape:window-width="1920"
     inkscape:window-height="1010"
     inkscape:window-x="1699"
     inkscape:window-y="-6"
     inkscape:window-maximized="1"
     inkscape:current-layer="layer1" />
  <defs
     id="defs1" />
  <g
     inkscape:label="Layer 1"
     inkscape:groupmode="layer"
     id="layer1"
     transform="translate(-38.099998,-31.220834)">
    <path
       style="fill:#0e232e;stroke:#0e232e;stroke-width:1.58366;stroke-linecap:square;stroke-linejoin:round"
       d="m 77.903691,130.63311 -1.83967,21.60841 2.29791,11.37937"
       id="path2"
       sodipodi:nodetypes="ccc" />
    <circle
       style="fill:#ff4141;stroke-width:2;stroke-linecap:square;stroke-linejoin:round"
       id="path1"
       cx="79.376427"
       cy="93.535385"
       r="37.907063" />
    <path
       style="fill:#19aeff;stroke-width:2;stroke-linecap:square;stroke-linejoin:round"
       d="m 89.072116,86.057264 -1.288104,13.433092 6.256505,-1.28811 1.104089,-10.488849 -6.624535,-2.576208 z"
       id="path16" />
    <rect
       style="fill:#dc0000;stroke-width:1.50314;stroke-linecap:square;stroke-linejoin:round"
       id="rect1"
       width="23.223902"
       height="8.1074867"
       x="66.863419"
       y="124.8179"
       rx="10"
       ry="1.8709587" />
    <path
       style="fill:#19aeff;stroke-width:2;stroke-linecap:square;stroke-linejoin:round"
       d="m 56.869514,88.081428 -1.288104,13.433092 6.256505,-1.28811 1.104089,-10.488849 -6.624535,-2.576208 z"
       id="path14" />
    <g
       id="g14"
       transform="translate(-27.402256,-8.3642007)">
      <rect
         style="fill:#19aeff;stroke:#0e232e;stroke-width:1.52893;stroke-linecap:square;stroke-linejoin:round"
         id="rect2"
         width="17.705845"
         height="11.140756"
         x="83.300323"
         y="85.642448"
         rx="7.6446691"
         ry="2.532119" />
      <rect
         style="fill:#19aeff;stroke:#0e232e;stroke-width:1.52893;stroke-linecap:square;stroke-linejoin:round"
         id="rect3"
         width="17.705845"
         height="11.140756"
         x="108.28301"
         y="85.642448"
         rx="7.6446691"
         ry="2.532119" />
      <path
         style="fill:#19aeff;stroke:#0e232e;stroke-width:2;stroke-linecap:square;stroke-linejoin:round"
         d="m 108.51855,90.822477 h -8.32757"
         id="path3" />
      <path
         style="fill:#19aeff;stroke:#0e232e;stroke-width:2;stroke-linecap:square;stroke-linejoin:round"
         d="M 82.234676,90.822477 66.880734,100.45122"
         id="path4" />
      <path
         style="fill:#19aeff;stroke:#0e232e;stroke-width:2;stroke-linecap:square;stroke-linejoin:round"
         d="m 126.21462,89.78153 18.73701,10.40945"
         id="path5" />
    </g>
    <ellipse
       style="fill:#b50000;stroke:#b50000;stroke-width:2;stroke-linecap:square;stroke-linejoin:round"
       id="path6"
       cx="76.050919"
       cy="96.641144"
       rx="6.2456717"
       ry="11.060043" />
    <ellipse
       style="fill:#b50000;stroke:#b50000;stroke-width:2;stroke-linecap:square;stroke-linejoin:round"
       id="path7"
       cx="76.539627"
       cy="100.80494"
       rx="11.158387"
       ry="6.8962626" />
    <path
       style="fill:#0e232e;stroke:#0e232e;stroke-width:2;stroke-linecap:square;stroke-linejoin:round"
       d="m 60.436749,111.86498 1.040944,-8.06733 2.862602,2.34213 1.821653,-2.60236 1.301181,3.12283 3.122838,-3.12283 3.122834,2.8626 2.8626,-2.60237 3.12284,2.34213 3.90354,-2.34213 c 0,0 1.82166,5.20473 2.34213,3.90355 0.52047,-1.30118 3.12283,-4.94449 3.12283,-4.94449 l 2.60237,4.16378 -1.56142,6.50591 -1.30118,1.04094 -1.82166,-1.56142 -2.34212,1.56142 -0.52047,-2.08189 -3.12284,2.08189 -1.04095,-2.8626 -2.08189,2.60237 -2.34213,-3.38308 -1.04094,2.60237 -2.34213,-2.08189 -1.561414,2.60236 -2.342129,-2.34213 -4.424016,3.12284 v -3.64331 l -2.862601,3.90355 z"
       id="path8" />
    <path
       style="fill:#0e232e;stroke:#0e232e;stroke-width:2;stroke-linecap:square;stroke-linejoin:round"
       d="m 57.122591,76.870954 2.073469,-4.327417 1.795677,1.674182 0.834676,-2.917814 2.249109,2.360933 1.956809,-3.757321 0.790201,1.943596 2.275534,-3.573307 0.992264,2.697703 -0.902029,2.666448 -2.733798,-1.153398 -1.472118,2.549786 -1.158232,-1.306153 -2.024165,3.505956 -1.29294,-1.808891 z"
       id="path9" />
    <path
       style="fill:#0e232e;stroke:#0e232e;stroke-width:2;stroke-linecap:square;stroke-linejoin:round"
       d="m 93.38835,78.773833 -0.882805,-4.71662 -2.167799,1.152379 -0.05105,-3.034421 -2.783528,1.698373 -0.917659,-4.135748 -1.266319,1.672848 -1.27316,-4.040503 -1.656664,2.348969 0.181164,2.809052 2.939164,-0.40654 0.762023,2.843917 1.456825,-0.961875 1.047784,3.910386 1.717061,-1.412617 z"
       id="path10" />
    <g
       id="g13"
       transform="translate(-26.800145,-8.2248353)">
      <path
         style="fill:#804d00;stroke:#804d00;stroke-width:2;stroke-linecap:square;stroke-linejoin:round"
         d="m 114.50398,49.184665 c -3.38307,-0.780709 -18.997251,-1.561417 -20.038196,-1.561417 -1.040945,0 -5.204727,1.301181 -5.204727,1.301181 l -4.684252,9.888979 -1.301181,8.067326 c 0,0 5.204725,2.602365 6.505906,2.602365 1.301183,0 16.13465,-1.040945 16.13465,-1.040945 0,0 9.10827,1.040945 10.66969,1.301181 1.56142,0.260236 5.7252,2.602362 5.7252,0.780709 0,-1.821654 -0.52047,-7.286617 -0.52047,-8.587799 0,-1.301181 -2.34213,-10.409454 -2.34213,-10.409454 z"
         id="path11" />
      <path
         style="fill:#0e232e;stroke:#0e232e;stroke-width:2;stroke-linecap:square;stroke-linejoin:round"
         d="m 112.16726,69.222861 13.53229,7.026381 7.02638,-0.520472 -3.85582,-5.311235 -4.60186,-2.040442 z"
         id="path13"
         sodipodi:nodetypes="cccccc" />
      <path
         style="fill:#b88100;stroke:#b88100;stroke-width:2;stroke-linecap:square;stroke-linejoin:round"
         d="m 85.877985,66.880734 c 0,0 -4.944489,-1.561417 -7.546854,2.081892 -2.602362,3.643307 -0.520472,5.464961 -0.520472,5.464961 0,0 -5.7252,1.040945 2.862601,0.780709 8.587798,-0.260236 19.257487,-3.122835 21.33938,-3.122835 2.08189,0 9.10828,-2.342126 9.10828,-2.342126 z"
         id="path12" />
    </g>
    <circle
       style="fill:#0e232e;stroke:#0e232e;stroke-width:2.70124;stroke-linecap:square;stroke-linejoin:round"
       id="circle14"
       cx="91.076988"
       cy="82.771812"
       r="2.1125429" />
    <circle
       style="fill:#0e232e;stroke:#0e232e;stroke-width:2.70124;stroke-linecap:square;stroke-linejoin:round"
       id="circle14-2"
       cx="63.331142"
       cy="83.950905"
       r="2.1125429" />
    <path
       style="fill:none;stroke:#0e232e;stroke-width:1.53908;stroke-linecap:square;stroke-linejoin:round"
       d="m 78.237451,38.908534 10.21339,1.101444 1.40183,-3.504594 c 0,0 -1.40183,-2.303019 -1.80236,-2.803673 -0.40053,-0.500657 -1.50197,-1.6021 -2.9038,-1.702232 -1.40184,-0.10013 -4.8063,0.801049 -5.50722,1.902494 -0.70092,1.101443 -2.30302,4.405774 -2.30302,4.405774 l -7.109309,-6.108005 -3.905119,1.702231 v 2.603411 l 2.102756,2.603412 c 0,0 6.107992,0.600787 6.608662,0.500655 0.50065,-0.10013 3.20419,-0.700917 3.20419,-0.700917 z"
       id="path15" />
  </g>
</svg>
