<?xml version="1.0" encoding="UTF-8" standalone="no"?>
<!-- Created with Inkscape (http://www.inkscape.org/) -->

<svg
   width="44.015152mm"
   height="31.349937mm"
   viewBox="0 0 44.015152 31.349937"
   version="1.1"
   id="svg1"
   inkscape:version="1.3.2 (091e20e, 2023-11-25, custom)"
   sodipodi:docname="FastFood.svg"
   xmlns:inkscape="http://www.inkscape.org/namespaces/inkscape"
   xmlns:sodipodi="http://sodipodi.sourceforge.net/DTD/sodipodi-0.dtd"
   xmlns="http://www.w3.org/2000/svg"
   xmlns:svg="http://www.w3.org/2000/svg">
  <sodipodi:namedview
     id="namedview1"
     pagecolor="#ffffff"
     bordercolor="#000000"
     borderopacity="0.25"
     inkscape:showpageshadow="2"
     inkscape:pageopacity="0.0"
     inkscape:pagecheckerboard="0"
     inkscape:deskcolor="#d1d1d1"
     inkscape:document-units="mm"
     inkscape:zoom="0.7349537"
     inkscape:cx="187.76693"
     inkscape:cy="117.69449"
     inkscape:window-width="1920"
     inkscape:window-height="1010"
     inkscape:window-x="1699"
     inkscape:window-y="-6"
     inkscape:window-maximized="1"
     inkscape:current-layer="layer1" />
  <defs
     id="defs1" />
  <g
     inkscape:label="Layer 1"
     inkscape:groupmode="layer"
     id="layer1"
     transform="translate(-55.297921,-117.475)">
    <g
       id="g198"
       transform="translate(265.18406,-146.48847)">
      <rect
         style="fill:#ffff3e;stroke:none;stroke-width:1.23997;stroke-linecap:square;stroke-linejoin:round"
         id="rect161-6"
         width="44.015152"
         height="31.349937"
         x="-209.88614"
         y="263.96347"
         rx="6.3017139" />
      <rect
         style="fill:#005c94;stroke:none;stroke-width:1.34543;stroke-linecap:square;stroke-linejoin:round"
         id="rect162-5"
         width="23.019419"
         height="19.441698"
         x="-191.79947"
         y="270.66693"
         rx="6.279222"
         ry="0" />
      <rect
         style="fill:#9eabb0;stroke:none;stroke-width:1.21971;stroke-linecap:square;stroke-linejoin:round"
         id="rect163-7"
         width="9.8654652"
         height="20.869255"
         x="-204.692"
         y="274.33487" />
      <circle
         style="fill:#0e232e;stroke:none;stroke-width:0.97204;stroke-linecap:square;stroke-linejoin:round"
         id="circle163-2"
         cx="-197.87051"
         cy="285.33865"
         r="1.6442443" />
      <g
         id="g197"
         transform="matrix(0.47090029,0,0,0.47090029,-95.807287,134.19562)">
        <path
           style="fill:#ffffff;stroke:none;stroke-width:0.2;stroke-linecap:square;stroke-linejoin:round;stroke-dasharray:none"
           d="m -169.67408,307.92462 0.13012,-4.2939 -0.52047,-0.19518 0.52047,-0.26022 -0.39035,-0.19518 0.52047,-0.39037 -0.58553,-0.0651 0.52047,-0.58552 3.70837,-0.84577 c 0,0 0.52047,0.71565 0.19517,0.71565 -0.32529,0 -3.38307,0.7807 -3.38307,0.7807 l 0.19518,0.0651 -0.39035,0.19519 0.39035,0.19518 -0.65059,0.26022 0.39036,0.19518"
           id="path197" />
        <path
           style="fill:#804d00;stroke:none;stroke-width:0.235339;stroke-linecap:square;stroke-linejoin:round;stroke-dasharray:none"
           d="m -202.72776,313.74534 -0.60866,4.41636 29.8104,-1.47211 -1.01916,-4.41638 z"
           id="path180"
           sodipodi:nodetypes="ccccc" />
        <path
           style="fill:#b88100;stroke:none;stroke-width:0.2;stroke-linecap:square;stroke-linejoin:round;stroke-dasharray:none"
           d="m -202.41635,309.51298 4.04832,-4.60036 c 0,0 3.12826,-0.36804 4.41636,-0.55203 1.28811,-0.18402 8.28067,-0.73607 8.28067,-0.73607 l 4.60037,0.92006 3.86432,2.39221 3.49628,4.41634 c 0,0 -1.28811,1.65614 -2.94424,1.84015 -1.65614,0.18402 -7.17658,0 -8.6487,0 -1.47212,0 -4.23234,-0.36801 -5.88848,-0.36801 -1.65613,0 -5.52044,0 -6.80855,0 -1.2881,0 -4.23234,-1.65613 -4.23234,-1.65613 z"
           id="path176" />
        <path
           style="fill:#b88100;stroke:none;stroke-width:0.2;stroke-linecap:square;stroke-linejoin:round;stroke-dasharray:none"
           d="m -202.78438,318.97954 4.04832,4.60036 c 0,0 3.12826,0.36804 4.41636,0.55203 1.28811,0.18402 8.28067,0.73607 8.28067,0.73607 l 4.60037,-0.92006 3.86432,-2.39221 3.49628,-4.41634 c 0,0 -1.28811,-1.65614 -2.94424,-1.84015 -1.65614,-0.18402 -7.17658,0 -8.6487,0 -1.47212,0 -4.23234,0.36801 -5.88848,0.36801 -1.65613,0 -5.52044,0 -6.80855,0 -1.2881,0 -4.23234,1.65613 -4.23234,1.65613 z"
           id="path177" />
        <path
           style="fill:#9ade00;stroke:none;stroke-width:0.2;stroke-linecap:square;stroke-linejoin:round;stroke-dasharray:none"
           d="m -202.23233,311.16913 6.80855,-0.92007 2.57621,1.10408 4.04832,-0.92006 5.15242,0.55203 c 0,0 0.92007,0.92009 2.39219,0.55205 1.47212,-0.36803 2.39219,-1.10408 3.49629,-1.2881 1.10408,-0.18401 5.70445,1.10408 5.70445,1.10408 0,0 0,1.2881 -1.10408,1.47212 -1.10409,0.18402 -5.33644,0.36803 -5.33644,0.36803 0,0 -6.44051,0.18402 -7.5446,0.36804 -1.10409,0.18402 -8.46469,-1.2881 -8.46469,-1.2881 h -2.94424 c 0,0 -1.84015,0.73605 -3.31226,1.10408 -1.47212,0.36804 -4.41636,-0.92009 -4.41636,-0.92009 z"
           id="path178" />
        <path
           style="fill:#dc0000;stroke:none;stroke-width:0.22576;stroke-linecap:square;stroke-linejoin:round;stroke-dasharray:none"
           d="m -201.69169,312.46839 27.66753,-0.73604 -0.23448,1.47211 -28.83986,0.92006 z"
           id="path179" />
        <path
           style="fill:#ffff3e;stroke:none;stroke-width:0.2;stroke-linecap:square;stroke-linejoin:round;stroke-dasharray:none"
           d="m -202.98432,313.71487 c 0,0 -0.52048,1.17107 0.19517,1.10601 0.71565,-0.0651 3.12284,-0.4554 3.64331,-0.4554 0.52048,0 2.79754,0.39034 3.1879,0.26021 0.39035,-0.13012 2.66742,-0.32527 2.92766,-0.39033 0.26023,-0.0651 5.33484,-0.19519 5.72519,-0.13013 0.39036,0.0651 3.90355,0.0651 4.42402,0.0651 0.52047,0 5.26979,-0.13012 5.53002,-0.13012 0.26024,0 2.53731,0.4554 2.53731,0.4554 0,0 0.78071,0 0.71565,-0.32528 -0.0651,-0.3253 0.65059,-1.30119 0.32529,-1.30119 -0.32529,0 -2.34212,0.0651 -2.34212,0.0651 z"
           id="path181" />
        <ellipse
           style="fill:#ffffff;stroke:none;stroke-width:0.210526;stroke-linecap:square;stroke-linejoin:round;stroke-dasharray:none"
           id="path182"
           cx="-182.91357"
           cy="309.35593"
           rx="0.8132385"
           ry="0.52047265" />
        <ellipse
           style="fill:#ffffff;stroke:none;stroke-width:0.184736;stroke-linecap:square;stroke-linejoin:round;stroke-dasharray:none"
           id="ellipse182"
           cx="-192.18451"
           cy="308.11978"
           rx="0.45541355"
           ry="0.7156499" />
        <ellipse
           style="fill:#ffffff;stroke:none;stroke-width:0.207878;stroke-linecap:square;stroke-linejoin:round;stroke-dasharray:none"
           id="ellipse183"
           cx="-186.5569"
           cy="306.75354"
           rx="0.48794308"
           ry="0.84576803" />
        <ellipse
           style="fill:#ffffff;stroke:none;stroke-width:0.161022;stroke-linecap:square;stroke-linejoin:round;stroke-dasharray:none"
           id="ellipse184"
           cx="-182.58829"
           cy="307.46918"
           rx="0.29276586"
           ry="0.84576803" />
        <ellipse
           style="fill:#ffffff;stroke:none;stroke-width:0.207878;stroke-linecap:square;stroke-linejoin:round;stroke-dasharray:none"
           id="ellipse185"
           cx="-189.28937"
           cy="308.44507"
           rx="0.48794308"
           ry="0.84576803" />
        <ellipse
           style="fill:#ffffff;stroke:none;stroke-width:0.207878;stroke-linecap:square;stroke-linejoin:round;stroke-dasharray:none"
           id="ellipse186"
           cx="-181.41722"
           cy="319.83041"
           rx="0.48794308"
           ry="0.84576803" />
        <ellipse
           style="fill:#ffffff;stroke:none;stroke-width:0.152541;stroke-linecap:square;stroke-linejoin:round;stroke-dasharray:none"
           id="ellipse187"
           cx="-188.73636"
           cy="319.66776"
           rx="0.32529539"
           ry="0.68312031" />
        <ellipse
           style="fill:#ffffff;stroke:none;stroke-width:0.207878;stroke-linecap:square;stroke-linejoin:round;stroke-dasharray:none"
           id="ellipse188"
           cx="-192.60738"
           cy="317.61841"
           rx="0.48794308"
           ry="0.84576803" />
        <ellipse
           style="fill:#ffffff;stroke:none;stroke-width:0.207878;stroke-linecap:square;stroke-linejoin:round;stroke-dasharray:none"
           id="ellipse189"
           cx="-195.01456"
           cy="319.63525"
           rx="0.48794308"
           ry="0.84576803" />
        <ellipse
           style="fill:#ffffff;stroke:none;stroke-width:0.142786;stroke-linecap:square;stroke-linejoin:round;stroke-dasharray:none"
           id="ellipse190"
           cx="-186.84964"
           cy="317.26059"
           rx="0.26023629"
           ry="0.74817944" />
        <ellipse
           style="fill:#ffffff;stroke:none;stroke-width:0.207878;stroke-linecap:square;stroke-linejoin:round;stroke-dasharray:none"
           id="ellipse191"
           cx="-184.08463"
           cy="321.06656"
           rx="0.48794308"
           ry="0.84576803" />
        <ellipse
           style="fill:#ffffff;stroke:none;stroke-width:0.207878;stroke-linecap:square;stroke-linejoin:round;stroke-dasharray:none"
           id="ellipse192"
           cx="-198.20244"
           cy="320.41595"
           rx="0.48794308"
           ry="0.84576803" />
        <ellipse
           style="fill:#ffffff;stroke:none;stroke-width:0.207878;stroke-linecap:square;stroke-linejoin:round;stroke-dasharray:none"
           id="ellipse193"
           cx="-182.32802"
           cy="317.48828"
           rx="0.48794308"
           ry="0.84576803" />
        <ellipse
           style="fill:#ffffff;stroke:none;stroke-width:0.210526;stroke-linecap:square;stroke-linejoin:round;stroke-dasharray:none"
           id="ellipse194"
           cx="-196.44586"
           cy="307.72946"
           rx="0.8132385"
           ry="0.52047265" />
        <ellipse
           style="fill:#ffffff;stroke:none;stroke-width:0.210526;stroke-linecap:square;stroke-linejoin:round;stroke-dasharray:none"
           id="ellipse195"
           cx="-192.28207"
           cy="321.58704"
           rx="0.8132385"
           ry="0.52047265" />
        <path
           style="fill:#ffffff;stroke:none;stroke-width:0.2;stroke-linecap:square;stroke-linejoin:round;stroke-dasharray:none"
           d="m -172.0162,306.55836 c 0.13012,2.34215 1.4313,19.12739 1.4313,19.12739 l 10.53957,-0.39036 3.25295,-19.38761 z"
           id="path195" />
        <ellipse
           style="fill:#005c94;stroke:none;stroke-width:0.139024;stroke-linecap:square;stroke-linejoin:round;stroke-dasharray:none"
           id="path196"
           cx="-165.18498"
           cy="315.6857"
           rx="3.7083671"
           ry="4.7032952" />
        <rect
           style="fill:#2d2d2d;stroke:none;stroke-width:0.150756;stroke-linecap:square;stroke-linejoin:round;stroke-dasharray:none"
           id="rect196"
           width="17.565952"
           height="1.6264771"
           x="-173.25232"
           y="305.90778"
           ry="0.33980018" />
      </g>
      <rect
         style="fill:#b50000;stroke:none;stroke-width:0.247679;stroke-linecap:square;stroke-linejoin:round;stroke-dasharray:none"
         id="rect197"
         width="27.324812"
         height="3.7734265"
         x="-193.61583"
         y="269.86505"
         ry="0.9128105" />
      <rect
         style="fill:#b50000;stroke:none;stroke-width:0.247679;stroke-linecap:square;stroke-linejoin:round;stroke-dasharray:none"
         id="rect198"
         width="27.324812"
         height="3.7734265"
         x="-193.61583"
         y="288.73218"
         ry="0.9128105" />
    </g>
  </g>
</svg>
