<?xml version="1.0" encoding="UTF-8" standalone="no"?>
<!-- Created with Inkscape (http://www.inkscape.org/) -->

<svg
   width="62.633739mm"
   height="115.35529mm"
   viewBox="0 0 62.633739 115.35529"
   version="1.1"
   id="svg1"
   inkscape:version="1.3.2 (091e20e, 2023-11-25, custom)"
   sodipodi:docname="Friend.svg"
   xmlns:inkscape="http://www.inkscape.org/namespaces/inkscape"
   xmlns:sodipodi="http://sodipodi.sourceforge.net/DTD/sodipodi-0.dtd"
   xmlns="http://www.w3.org/2000/svg"
   xmlns:svg="http://www.w3.org/2000/svg">
  <sodipodi:namedview
     id="namedview1"
     pagecolor="#ffffff"
     bordercolor="#000000"
     borderopacity="0.25"
     inkscape:showpageshadow="2"
     inkscape:pageopacity="0.0"
     inkscape:pagecheckerboard="0"
     inkscape:deskcolor="#d1d1d1"
     inkscape:document-units="mm"
     inkscape:zoom="0.71891835"
     inkscape:cx="-31.992507"
     inkscape:cy="192.65053"
     inkscape:window-width="1920"
     inkscape:window-height="1010"
     inkscape:window-x="1699"
     inkscape:window-y="-6"
     inkscape:window-maximized="1"
     inkscape:current-layer="layer1" />
  <defs
     id="defs1" />
  <g
     inkscape:label="Layer 1"
     inkscape:groupmode="layer"
     id="layer1"
     transform="translate(-141.2875,-112.7125)">
    <rect
       style="fill:#0e232e;stroke-width:2;stroke-linecap:square;stroke-linejoin:round"
       id="rect48"
       width="1.8401487"
       height="8.4646835"
       x="202.50081"
       y="66.333351"
       ry="0.92007434"
       transform="rotate(15)" />
    <path
       style="fill:none;stroke:#0e232e;stroke-width:4.86247;stroke-linecap:square;stroke-linejoin:round"
       d="m 172.71624,198.5577 -7.71738,8.61213 8.27658,3.1317 c 0,0 1.45401,8.72398 -1.78953,10.17796 -3.24352,1.454 -4.58568,4.362 -4.58568,4.362"
       id="path52" />
    <circle
       style="fill:#0084c8;stroke:none;stroke-width:4.86247;stroke-linecap:square;stroke-linejoin:round"
       id="path46"
       cx="172.60437"
       cy="166.23422"
       r="31.31687" />
    <circle
       style="fill:#0e232e;stroke:none;stroke-width:4.86247;stroke-linecap:square;stroke-linejoin:round"
       id="path47"
       cx="161.16515"
       cy="161.16756"
       r="4.7452226" />
    <circle
       style="fill:#0e232e;stroke:none;stroke-width:4.86247;stroke-linecap:square;stroke-linejoin:round"
       id="path48"
       cx="181.56961"
       cy="161.64211"
       r="5.5360923" />
    <path
       style="fill:#0e232e;stroke:#0e232e;stroke-width:4.86247;stroke-linecap:square;stroke-linejoin:round"
       d="m 164.68969,141.18439 -10.00705,10.39435"
       id="path49" />
    <path
       style="fill:#0e232e;stroke:#0e232e;stroke-width:4.86247;stroke-linecap:square;stroke-linejoin:round"
       d="m 182.75425,141.87548 9.12482,8.51934"
       id="path50"
       sodipodi:nodetypes="cc" />
    <rect
       style="fill:#005c94;stroke:#005c94;stroke-width:4.86247;stroke-linecap:square;stroke-linejoin:round"
       id="rect51"
       width="20.915194"
       height="3.2435331"
       x="161.86717"
       y="193.63647" />
    <path
       style="fill:#ffff3e;stroke-width:2;stroke-linecap:square;stroke-linejoin:round"
       d="m 159.82425,129.82715 13.6171,5.52044 c 0,0 1.10409,-6.99256 0.92007,-7.72862 -0.18401,-0.73606 -0.36803,-6.62454 -1.10409,-7.54461 -0.73606,-0.92008 -3.86431,-2.3922 -4.78438,-2.3922 -0.92008,0 -5.70447,7.3606 -5.70447,7.3606 z"
       id="path18" />
    <path
       style="fill:#005c94;stroke-width:2;stroke-linecap:square;stroke-linejoin:round"
       d="m 172.8893,118.94739 9.93681,6.80855 -0.36803,9.01673 -4.96841,2.57621 -5.33643,-2.20818 z"
       id="path19" />
    <path
       style="fill:#dc0000;stroke-width:2;stroke-linecap:square;stroke-linejoin:round"
       d="m 181.538,124.83587 -2.76022,12.14498 6.07249,1.65613 c 0,0 1.10409,-6.62453 1.10409,-8.6487 0,-2.02416 -4.41636,-5.15241 -4.41636,-5.15241 z"
       id="path20" />
    <path
       style="fill:#ffffff;stroke:#666666;stroke-width:2;stroke-linecap:square;stroke-linejoin:round"
       d="m 179.88187,117.59016 c 4.37237,-1.80039 7.25131,-2.66733 13.89312,2.57621"
       id="path54"
       sodipodi:nodetypes="cc" />
    <path
       style="fill:#ffffff;stroke:#666666;stroke-width:2;stroke-linecap:square;stroke-linejoin:round"
       d="m 165.06867,115.10596 c 4.37237,-1.80039 7.25131,-2.66733 13.89312,2.57621"
       id="path55"
       sodipodi:nodetypes="cc" />
    <path
       style="fill:#009100;stroke-width:2;stroke-linecap:square;stroke-linejoin:round"
       d="m 160.37629,127.43495 -13.6171,8.83272 c 0,0 -2.76022,4.78438 -2.94424,5.70446 -0.18401,0.92007 -0.55204,2.5762 0.55205,2.5762 1.10409,0 8.6487,-2.39219 10.85688,-2.5762 2.20817,-0.18402 18.76951,-5.15242 18.76951,-5.15242 l 0.18402,-6.07249 c 0,0 -3.6803,-4.41636 -4.96841,-4.41636 -1.2881,0 -8.83271,1.10409 -8.83271,1.10409 z"
       id="path14" />
    <path
       style="fill:#0e232e;stroke:none;stroke-width:2;stroke-linecap:square;stroke-linejoin:round"
       d="m 166.49297,183.80285 -0.0528,-2.94918 10.5249,-0.46004 -0.56017,2.82832"
       id="path56"
       sodipodi:nodetypes="cccc" />
    <path
       id="path57"
       style="fill:#dc0000;stroke:none;stroke-width:2;stroke-linecap:square;stroke-linejoin:round"
       d="m 181.92992,185.24263 -7.14995,3.39617 a 4.1637812,4.1637812 0 0 0 -3.25923,-1.57458 4.1637812,4.1637812 0 0 0 -3.29231,1.63091 l -6.85694,-3.25716 0.52038,11.71039 5.91798,-4.04936 a 4.1637812,4.1637812 0 0 0 3.71089,2.29288 4.1637812,4.1637812 0 0 0 3.84059,-2.5771 l 6.04821,4.13825 z" />
  </g>
</svg>
