<?xml version="1.0" encoding="UTF-8" standalone="no"?>
<!-- Created with Inkscape (http://www.inkscape.org/) -->

<svg
   width="44.015152mm"
   height="31.349937mm"
   viewBox="0 0 44.015152 31.349937"
   version="1.1"
   id="svg1"
   inkscape:version="1.3.2 (091e20e, 2023-11-25, custom)"
   sodipodi:docname="JewelleryShop.svg"
   xmlns:inkscape="http://www.inkscape.org/namespaces/inkscape"
   xmlns:sodipodi="http://sodipodi.sourceforge.net/DTD/sodipodi-0.dtd"
   xmlns="http://www.w3.org/2000/svg"
   xmlns:svg="http://www.w3.org/2000/svg">
  <sodipodi:namedview
     id="namedview1"
     pagecolor="#ffffff"
     bordercolor="#000000"
     borderopacity="0.25"
     inkscape:showpageshadow="2"
     inkscape:pageopacity="0.0"
     inkscape:pagecheckerboard="0"
     inkscape:deskcolor="#d1d1d1"
     inkscape:document-units="mm"
     inkscape:zoom="0.7349537"
     inkscape:cx="82.998425"
     inkscape:cy="59.187402"
     inkscape:window-width="1920"
     inkscape:window-height="1010"
     inkscape:window-x="1699"
     inkscape:window-y="-6"
     inkscape:window-maximized="1"
     inkscape:current-layer="layer1" />
  <defs
     id="defs1" />
  <g
     inkscape:label="Layer 1"
     inkscape:groupmode="layer"
     id="layer1"
     transform="translate(-83.07917,-132.82083)">
    <rect
       style="fill:#0e232e;stroke:none;stroke-width:1.23997;stroke-linecap:square;stroke-linejoin:round"
       id="rect24-32"
       width="44.015152"
       height="31.349937"
       x="83.07917"
       y="132.82083"
       rx="6.3017139" />
    <rect
       style="fill:#005c94;stroke:none;stroke-width:1.34543;stroke-linecap:square;stroke-linejoin:round"
       id="rect31-5"
       width="23.019419"
       height="19.441698"
       x="101.16585"
       y="139.52429"
       rx="6.279222"
       ry="0" />
    <rect
       style="fill:#19aeff;stroke:none;stroke-width:1.21971;stroke-linecap:square;stroke-linejoin:round"
       id="rect47-7"
       width="9.8654652"
       height="20.869255"
       x="88.273308"
       y="143.19223" />
    <circle
       style="fill:#ffff3e;stroke:none;stroke-width:0.97204;stroke-linecap:square;stroke-linejoin:round"
       id="path53-2"
       cx="95.094795"
       cy="154.19601"
       r="1.6442443" />
    <g
       id="g159"
       transform="matrix(0.53895284,-0.53895284,0.53895284,0.53895284,-10.20136,-60.034422)">
      <path
         id="path147"
         style="fill:#ffffff;stroke:none;stroke-width:0.531609;stroke-linecap:square;stroke-linejoin:round;stroke-dasharray:none"
         d="m -83.031654,303.20866 a 5.1878811,5.1878811 0 0 0 -5.187769,5.18777 5.1878811,5.1878811 0 0 0 5.187769,5.18777 5.1878811,5.1878811 0 0 0 5.187768,-5.18777 5.1878811,5.1878811 0 0 0 -5.187768,-5.18777 z m 0.02032,0.69033 a 4.7208415,4.7208415 0 0 1 4.720669,4.72067 4.7208415,4.7208415 0 0 1 -4.720669,4.72099 4.7208415,4.7208415 0 0 1 -4.720992,-4.72099 4.7208415,4.7208415 0 0 1 4.720992,-4.72067 z" />
      <path
         sodipodi:type="star"
         style="fill:#19aeff;stroke:none;stroke-width:0.2;stroke-linecap:square;stroke-linejoin:round;stroke-dasharray:none"
         id="path159"
         inkscape:flatsided="true"
         sodipodi:sides="5"
         sodipodi:cx="-82.299728"
         sodipodi:cy="296.73447"
         sodipodi:r1="4.6914768"
         sodipodi:r2="2.3457384"
         sodipodi:arg1="0.33929261"
         sodipodi:arg2="0.96761114"
         inkscape:rounded="0"
         inkscape:randomized="0"
         d="m -77.875711,298.29588 -4.541917,3.12858 -4.378984,-3.35283 1.835557,-5.20075 5.51342,0.1386 z"
         inkscape:transform-center-x="-0.6813781"
         inkscape:transform-center-y="0.23426627"
         transform="matrix(-0.19403477,0.64329535,-0.64329535,-0.19403477,92.219739,411.60384)" />
    </g>
    <g
       id="g161"
       transform="matrix(-0.53895284,-0.53895284,-0.53895284,0.53895284,236.16766,-60.034422)">
      <path
         id="path160"
         style="fill:#ffffff;stroke:none;stroke-width:0.531609;stroke-linecap:square;stroke-linejoin:round;stroke-dasharray:none"
         d="m -83.031654,303.20866 a 5.1878811,5.1878811 0 0 0 -5.187769,5.18777 5.1878811,5.1878811 0 0 0 5.187769,5.18777 5.1878811,5.1878811 0 0 0 5.187768,-5.18777 5.1878811,5.1878811 0 0 0 -5.187768,-5.18777 z m 0.02032,0.69033 a 4.7208415,4.7208415 0 0 1 4.720669,4.72067 4.7208415,4.7208415 0 0 1 -4.720669,4.72099 4.7208415,4.7208415 0 0 1 -4.720992,-4.72099 4.7208415,4.7208415 0 0 1 4.720992,-4.72067 z" />
      <path
         sodipodi:type="star"
         style="fill:#19aeff;stroke:none;stroke-width:0.2;stroke-linecap:square;stroke-linejoin:round;stroke-dasharray:none"
         id="path161"
         inkscape:flatsided="true"
         sodipodi:sides="5"
         sodipodi:cx="-82.299728"
         sodipodi:cy="296.73447"
         sodipodi:r1="4.6914768"
         sodipodi:r2="2.3457384"
         sodipodi:arg1="0.33929261"
         sodipodi:arg2="0.96761114"
         inkscape:rounded="0"
         inkscape:randomized="0"
         d="m -77.875711,298.29588 -4.541917,3.12858 -4.378984,-3.35283 1.835557,-5.20075 5.51342,0.1386 z"
         inkscape:transform-center-x="-0.6813781"
         inkscape:transform-center-y="0.23426627"
         transform="matrix(-0.19403477,0.64329535,-0.64329535,-0.19403477,92.219739,411.60384)" />
    </g>
  </g>
</svg>
