<?xml version="1.0" encoding="UTF-8" standalone="no"?>
<!-- Created with Inkscape (http://www.inkscape.org/) -->

<svg
   width="18.159409mm"
   height="15.015796mm"
   viewBox="0 0 18.159409 15.015796"
   version="1.1"
   id="svg1"
   inkscape:version="1.3.2 (091e20e, 2023-11-25, custom)"
   sodipodi:docname="KillWeapon.svg"
   xmlns:inkscape="http://www.inkscape.org/namespaces/inkscape"
   xmlns:sodipodi="http://sodipodi.sourceforge.net/DTD/sodipodi-0.dtd"
   xmlns="http://www.w3.org/2000/svg"
   xmlns:svg="http://www.w3.org/2000/svg">
  <sodipodi:namedview
     id="namedview1"
     pagecolor="#ffffff"
     bordercolor="#000000"
     borderopacity="0.25"
     inkscape:showpageshadow="2"
     inkscape:pageopacity="0.0"
     inkscape:pagecheckerboard="0"
     inkscape:deskcolor="#d1d1d1"
     inkscape:document-units="mm"
     inkscape:zoom="0.71891835"
     inkscape:cx="-300.45137"
     inkscape:cy="-38.25191"
     inkscape:window-width="1920"
     inkscape:window-height="1010"
     inkscape:window-x="-6"
     inkscape:window-y="-6"
     inkscape:window-maximized="1"
     inkscape:current-layer="layer1" />
  <defs
     id="defs1" />
  <g
     inkscape:label="Layer 1"
     inkscape:groupmode="layer"
     id="layer1"
     transform="translate(-184.41459,-158.48542)">
    <path
       style="fill:#ffffff;stroke:#ffffff;stroke-width:0.830004;stroke-linecap:square;stroke-linejoin:round"
       d="m 190.42885,165.79138 9.49747,-6.89126 -8.55253,8.52795 z"
       id="path132-8" />
    <path
       style="fill:#ffffff;stroke:#ffffff;stroke-width:0.839238;stroke-linecap:square;stroke-linejoin:round"
       d="m 192.45623,167.78836 9.69851,-3.98271 -10.78361,2.10326 z"
       id="path133-1" />
    <path
       id="path130-8"
       style="fill:#07b500;fill-opacity:1;stroke:#005c94;stroke-width:1.13099;stroke-linecap:square;stroke-linejoin:round"
       d="m 186.65801,163.5839 a 2.4927551,3.0505308 60 0 0 -1.3954,3.6839 2.4927551,3.0505308 60 0 0 3.88819,0.63373 2.4927551,3.0505308 60 0 0 1.39554,-3.6843 2.4927551,3.0505308 60 0 0 -3.88833,-0.63333 z m 0.0316,0.39996 a 2.0834858,2.549684 60 0 1 3.2498,0.52951 2.0834858,2.549684 60 0 1 -1.16634,3.07915 2.0834858,2.549684 60 0 1 -3.24979,-0.5295 2.0834858,2.549684 60 0 1 1.16633,-3.07916 z" />
    <path
       id="path131-1"
       style="fill:#07b500;fill-opacity:1;stroke:#005c94;stroke-width:1.24638;stroke-linecap:square;stroke-linejoin:round"
       d="m 188.24554,167.93307 a 2.4350601,3.7925356 60 0 0 -2.06681,4.00493 2.4350601,3.7925356 60 0 0 4.5019,0.21277 2.4350601,3.7925356 60 0 0 2.06703,-4.00535 2.4350601,3.7925356 60 0 0 -4.50212,-0.21235 z m -0.009,0.4137 a 2.0352634,3.1698638 60 0 1 3.76277,0.17765 2.0352634,3.1698638 60 0 1 -1.72753,3.34749 2.0352634,3.1698638 60 0 1 -3.76278,-0.17766 2.0352634,3.1698638 60 0 1 1.72754,-3.34748 z" />
  </g>
</svg>
