<?xml version="1.0" encoding="UTF-8" standalone="no"?>
<!-- Created with Inkscape (http://www.inkscape.org/) -->

<svg
   width="210mm"
   height="297mm"
   viewBox="0 0 210 297"
   version="1.1"
   id="svg1"
   inkscape:version="1.3.2 (091e20e, 2023-11-25, custom)"
   sodipodi:docname="PromoImage.svg"
   xmlns:inkscape="http://www.inkscape.org/namespaces/inkscape"
   xmlns:sodipodi="http://sodipodi.sourceforge.net/DTD/sodipodi-0.dtd"
   xmlns="http://www.w3.org/2000/svg"
   xmlns:svg="http://www.w3.org/2000/svg">
  <sodipodi:namedview
     id="namedview1"
     pagecolor="#ffffff"
     bordercolor="#000000"
     borderopacity="0.25"
     inkscape:showpageshadow="2"
     inkscape:pageopacity="0.0"
     inkscape:pagecheckerboard="0"
     inkscape:deskcolor="#d1d1d1"
     inkscape:document-units="mm"
     inkscape:zoom="0.71891835"
     inkscape:cx="329.66191"
     inkscape:cy="370.69578"
     inkscape:window-width="1920"
     inkscape:window-height="1010"
     inkscape:window-x="1699"
     inkscape:window-y="-6"
     inkscape:window-maximized="1"
     inkscape:current-layer="layer1" />
  <defs
     id="defs1" />
  <g
     inkscape:label="Layer 1"
     inkscape:groupmode="layer"
     id="layer1">
    <rect
       style="fill:#ffc022;stroke:#2d2d2d;stroke-width:1.71041;stroke-linecap:square;stroke-linejoin:round"
       id="rect16"
       width="211.11053"
       height="158.91039"
       x="0.59126967"
       y="-1.2488773"
       rx="5.3802338" />
    <g
       id="g16"
       transform="matrix(0.71455092,0.71455092,-0.57523865,0.57523865,199.14673,-123.78598)">
      <rect
         style="fill:#364e59;stroke:none;stroke-width:2.02529;stroke-linecap:square;stroke-linejoin:round"
         id="rect25"
         width="209.75047"
         height="23.681505"
         x="-7.6152263"
         y="154.93846" />
      <rect
         style="fill:#ffff3e;stroke:none;stroke-width:2;stroke-linecap:square;stroke-linejoin:round"
         id="rect26"
         width="24.982687"
         height="6.2456717"
         x="-3.1912088"
         y="164.04672" />
      <rect
         style="fill:#ffff3e;stroke:none;stroke-width:2;stroke-linecap:square;stroke-linejoin:round"
         id="rect27"
         width="24.982687"
         height="6.2456717"
         x="41.569435"
         y="164.04672" />
      <rect
         style="fill:#ffff3e;stroke:none;stroke-width:2;stroke-linecap:square;stroke-linejoin:round"
         id="rect28"
         width="24.982687"
         height="6.2456717"
         x="86.330086"
         y="164.04672" />
      <rect
         style="fill:#ffff3e;stroke:none;stroke-width:2;stroke-linecap:square;stroke-linejoin:round"
         id="rect29"
         width="24.982687"
         height="6.2456717"
         x="128.22813"
         y="164.04672" />
      <rect
         style="fill:#ffff3e;stroke:none;stroke-width:2;stroke-linecap:square;stroke-linejoin:round"
         id="rect30"
         width="24.982687"
         height="6.2456717"
         x="169.08524"
         y="164.04672" />
    </g>
    <path
       style="fill:#19aeff;stroke:#2d2d2d;stroke-width:2;stroke-linecap:square;stroke-linejoin:round"
       d="m 26.912136,28.068533 -0.78071,15.614182 v 5.985433 l 1.821655,7.807089 1.821653,4.163783 c 0,0 3.383074,0 4.163782,1.301181 0.780709,1.301181 4.944489,3.643309 4.944489,3.643309 l 6.245672,-2.342128 10.149218,-6.766145 c 0,0 6.245669,-15.614179 5.725197,-19.517722 -0.520473,-3.903546 -0.520473,-10.669691 -0.520473,-10.669691 0,0 -4.424015,-3.38307 -5.46496,-3.122834 -1.040948,0.260236 -4.163783,0.520472 -4.163783,0.520472 0,0 -2.342126,1.040945 -2.342126,2.602362 0,1.56142 0,6.505909 -0.260236,8.327562 -0.260236,1.821657 -3.383073,8.327565 -3.383073,9.36851 0,1.040945 -4.424016,3.643307 -5.7252,4.163779 -1.301181,0.520473 -4.16378,0.780709 -4.16378,-0.780708 0,-1.561418 0.260236,-9.108271 0.520473,-11.450397 0.260236,-2.342129 0.260236,-8.587801 0.260236,-8.587801 0,0 -3.903546,-1.301181 -4.944491,-1.040945 -1.040945,0.260237 -3.903543,0.780709 -3.903543,0.780709 z"
       id="path1" />
    <path
       id="path2"
       style="fill:#19aeff;stroke:#2d2d2d;stroke-width:2;stroke-linecap:square;stroke-linejoin:round"
       d="m 70.521798,33.110632 c -1.321511,0.02541 -2.745052,0.228927 -2.745052,0.228927 l -5.204333,1.561661 0.780314,41.116871 5.985681,1.04128 v -2.082044 -6.245613 -4.944401 c 0,-1.821656 1.821534,-5.205064 3.643189,-5.4653 1.821652,-0.260236 5.465149,-0.520324 7.807275,-2.341976 2.342124,-1.821654 1.821414,-2.341952 2.862357,-5.464783 1.040944,-3.122834 1.041281,-4.944401 1.041281,-4.944401 L 82.090084,39.32524 77.666065,34.90122 c 0,0 -4.163907,-1.041189 -5.20485,-1.561661 -0.390355,-0.195178 -1.14651,-0.244175 -1.939417,-0.228927 z m 1.548743,9.095052 a 3.7553496,3.7553496 0 0 1 3.755843,3.755326 3.7553496,3.7553496 0 0 1 -3.755843,3.755327 3.7553496,3.7553496 0 0 1 -3.755326,-3.755327 3.7553496,3.7553496 0 0 1 3.755326,-3.755326 z" />
    <path
       style="fill:#19aeff;stroke:#2d2d2d;stroke-width:1.56126;stroke-linecap:square;stroke-linejoin:round"
       d="M 29.523688,75.534482 28.914241,87.72341 v 4.67242 l 1.422042,6.09446 1.42204,3.25039 c 0,0 2.640936,0 3.250381,1.01574 0.609447,1.01574 3.859826,2.84408 3.859826,2.84408 l 4.875571,-1.82834 7.922803,-5.28187 c 0,0 4.875568,-12.188923 4.469271,-15.236153 -0.406298,-3.047233 -0.406298,-8.329101 -0.406298,-8.329101 0,0 -3.453527,-2.640933 -4.266122,-2.437784 -0.812597,0.203148 -3.250381,0.406297 -3.250381,0.406297 0,0 -1.828339,0.812595 -1.828339,2.031487 0,1.218894 0,5.07872 -0.203148,6.50076 -0.203149,1.422044 -2.640935,6.500763 -2.640935,7.313358 0,0.812594 -3.453528,2.844081 -4.469273,3.250378 -1.015744,0.406298 -3.25038,0.609447 -3.25038,-0.609445 0,-1.218893 0.203149,-7.110207 0.406298,-8.938545 0.203148,-1.828341 0.203148,-6.703912 0.203148,-6.703912 0,0 -3.047232,-1.015743 -3.859827,-0.812594 -0.812595,0.203149 -3.04723,0.609446 -3.04723,0.609446 z"
       id="path1-5" />
    <path
       id="path2-4"
       style="fill:#19aeff;stroke:#2d2d2d;stroke-width:1.4507;stroke-linecap:square;stroke-linejoin:round"
       d="m 63.337426,82.483893 c -0.958561,0.01843 -1.991129,0.166053 -1.991129,0.166053 l -3.774974,1.132754 0.566003,29.82419 4.341726,0.7553 v -1.51021 -4.53027 -3.58643 c 0,-1.32134 1.321253,-3.7755 2.642594,-3.96427 1.321339,-0.18876 3.964156,-0.37741 5.663026,-1.698748 1.69886,-1.32134 1.32116,-1.698739 2.07622,-3.963891 0.75505,-2.265154 0.75529,-3.586431 0.75529,-3.586431 L 71.728502,86.991672 68.51953,83.7827 c 0,0 -3.020294,-0.755229 -3.775344,-1.132754 -0.283145,-0.141573 -0.831623,-0.177113 -1.40676,-0.166053 z m 1.123384,6.597115 a 2.7239504,2.7239504 0 0 1 2.724304,2.723933 2.7239504,2.7239504 0 0 1 -2.724304,2.723934 2.7239504,2.7239504 0 0 1 -2.723934,-2.723934 2.7239504,2.7239504 0 0 1 2.723934,-2.723933 z" />
    <g
       id="g12"
       transform="matrix(1.5847673,0,0,0.81723937,-49.552517,17.687726)">
      <path
         style="fill:#19aeff;stroke:#2d2d2d;stroke-width:1.49603;stroke-linecap:square;stroke-linejoin:round"
         d="m 81.645493,75.398322 -0.38932,10.122382 3.89321,-0.583983 c 0,0 0.38933,-7.786447 0.38933,-8.565091 0,-0.778646 -3.89322,-0.973308 -3.89322,-0.973308 z"
         id="path3" />
      <path
         style="fill:#19aeff;stroke:#2d2d2d;stroke-width:0.828212;stroke-linecap:square;stroke-linejoin:round"
         d="m 82.361533,88.476071 c 0.53882,-0.107765 2.80189,0.215531 2.80189,0.215531 l 1.29318,2.586364 c 0,0 -0.75435,1.616476 -1.18542,1.832007 -0.43106,0.21553 -2.26306,0.323297 -2.26306,0.323297 l -0.64659,2.155302 2.58636,0.107766 0.86212,1.939773 -0.86212,1.724242 -2.90966,1.293187 c 0,0 -1.07765,0 -1.61648,-0.43107 -0.53882,-0.431054 -0.86212,-2.155297 -0.86212,-2.155297 l 2.04754,-0.323296 h 1.07766 c 0,0 -0.75436,-1.077652 -1.18542,-1.077652 -0.43106,0 -1.18542,-0.646592 -1.18542,-0.646592 v -3.017425 l 2.58636,-1.293182 1.18542,-0.646591 -0.53882,-1.293182 -2.37084,-0.323295 z"
         id="path4" />
      <path
         style="fill:#19aeff;stroke:#2d2d2d;stroke-width:1.49603;stroke-linecap:square;stroke-linejoin:round"
         d="m 80.672183,104.01352 -0.38932,10.12238 3.89322,-0.58399 c 0,0 0.38933,-7.78644 0.38933,-8.56509 0,-0.77864 -3.89323,-0.9733 -3.89323,-0.9733 z"
         id="path5" />
    </g>
    <path
       id="path6"
       style="fill:#19aeff;stroke:#2d2d2d;stroke-width:2;stroke-linecap:square;stroke-linejoin:round"
       d="m 25.242874,118.14743 0.26045,28.62564 c 0,0 2.081983,0.26024 3.903637,0 1.821653,-0.26023 3.903457,9e-5 4.944401,-0.52038 1.040944,-0.52047 5.204334,-2.86236 5.204334,-2.86236 0,0 3.123234,-4.42405 3.643705,-5.72523 0.520475,-1.30118 0.259933,-6.76599 0.259933,-6.76599 0,0 -0.780437,-5.98593 -1.561145,-7.54735 -0.780709,-1.5614 -2.342493,-3.38273 -2.342493,-3.38273 z m 5.464783,8.06721 5.20485,1.56114 0.26045,3.12333 -0.780831,4.42402 -4.16357,1.56114 -1.041281,-9.36842 z" />
    <path
       style="fill:#19aeff;stroke:#2d2d2d;stroke-width:2;stroke-linecap:square;stroke-linejoin:round"
       d="M 55.430336,119.44848 C 52.567738,119.18824 47.623247,118.928 47.623247,118.928 l -1.561418,27.06458 10.669688,0.78071 -0.520472,-4.94449 -4.424019,-1.30118 -0.780708,-4.16378 4.163782,-0.78071 -0.260236,-4.16378 -4.424019,-0.52048 0.260236,-4.42401 5.464964,-0.26024 0.520472,-5.7252 z"
       id="path7" />
    <path
       id="path8"
       style="fill:#19aeff;stroke:#2d2d2d;stroke-width:2;stroke-linecap:square;stroke-linejoin:round"
       d="m 60.374778,118.14743 0.26045,28.62564 c 0,0 2.081983,0.26024 3.903637,0 1.821653,-0.26023 3.903457,9e-5 4.944401,-0.52038 1.040944,-0.52047 5.204334,-2.86236 5.204334,-2.86236 0,0 3.123234,-4.42405 3.643705,-5.72523 0.520475,-1.30118 0.259933,-6.76599 0.259933,-6.76599 0,0 -0.780437,-5.98593 -1.561145,-7.54735 -0.780709,-1.5614 -2.342493,-3.38273 -2.342493,-3.38273 z m 5.464783,8.06721 5.20485,1.56114 0.26045,3.12333 -0.780831,4.42402 -4.16357,1.56114 -1.041281,-9.36842 z" />
    <path
       style="fill:#19aeff;stroke:#2d2d2d;stroke-width:1.40375;stroke-linecap:square;stroke-linejoin:round"
       d="m 82.747756,120.78219 -0.547961,10.95919 v 4.20103 l 1.278574,5.47959 1.278571,2.92246 c 0,0 2.374494,0 2.922453,0.91327 0.547959,0.91326 3.47041,2.55714 3.47041,2.55714 l 4.383678,-1.64388 7.123479,-4.74899 c 0,0 4.38368,-10.95919 4.01837,-13.69899 -0.3653,-2.7398 -0.3653,-7.48878 -0.3653,-7.48878 0,0 -3.10511,-2.37449 -3.83572,-2.19183 -0.73062,0.18264 -2.92246,0.3653 -2.92246,0.3653 0,0 -1.643874,0.73061 -1.643874,1.82653 0,1.09592 0,4.56633 -0.182656,5.8449 -0.182656,1.27858 -2.374492,5.84491 -2.374492,6.57552 0,0.73062 -3.105104,2.55715 -4.018372,2.92245 -0.913265,0.36531 -2.922451,0.54796 -2.922451,-0.54796 0,-1.09592 0.182653,-6.39286 0.365307,-8.03674 0.182653,-1.64388 0.182653,-6.02756 0.182653,-6.02756 0,0 -2.739799,-0.91327 -3.470412,-0.73061 -0.730613,0.18266 -2.739797,0.54796 -2.739797,0.54796 z"
       id="path9" />
    <path
       style="fill:#19aeff;stroke:#2d2d2d;stroke-width:2;stroke-linecap:square;stroke-linejoin:round"
       d="m 140.95538,119.24163 c -2.57621,0 -8.46468,2.94424 -8.46468,2.94424 l -3.12826,4.9684 -0.18401,4.78439 v 5.33643 c 0,0 1.28811,3.86431 1.28811,4.78439 0,0.92007 2.76022,3.49628 2.76022,3.49628 l 5.52044,1.65613 2.57621,-3.68029 -0.92007,-2.57621 -4.04833,-0.36803 -3.86431,-4.60037 2.39219,-2.76023 2.20818,0.92008 2.94424,-2.39219 -1.28811,-2.20818 -3.68029,-0.36803 -0.18402,-2.76023 3.31227,-1.65613 3.49628,-1.2881 -0.18401,-1.84015 z"
       id="path10" />
    <path
       style="fill:#19aeff;stroke:#2d2d2d;stroke-width:2;stroke-linecap:square;stroke-linejoin:round"
       d="m 124.57807,119.79368 c -1.28811,0 -4.96841,0.73606 -4.96841,0.73606 0,0 -2.76022,2.76022 -3.49628,4.04833 -0.73606,1.2881 -2.20818,5.52044 -2.20818,5.52044 l -0.92007,7.91264 c 0,0 0.18402,2.94424 0.55205,3.86431 0.36802,0.92008 2.76022,4.23235 2.76022,4.23235 0,0 3.12825,0.92007 3.86431,0.92007 0.73606,0 2.20818,0.18401 2.20818,0.18401 l 1.47212,-3.68029 -2.76023,-1.65614 c 0,0 -2.5762,-0.36803 -2.94423,-1.47211 -0.36803,-1.1041 -1.84015,-5.15242 -1.28811,-6.99257 0.55205,-1.84015 2.20818,-8.83271 2.20818,-8.83271 l 2.57621,-2.02417 3.86431,0.73606 z"
       id="path11" />
    <path
       style="fill:#19aeff;stroke:#2d2d2d;stroke-width:2;stroke-linecap:square;stroke-linejoin:round"
       d="m 81.7026,59.988846 -6.256504,6.992565 3.680296,2.208178 5.888476,-5.152414 z"
       id="path12" />
    <g
       id="g15"
       transform="rotate(-30.133167,143.20381,124.44707)">
      <path
         style="fill:#0e232e;stroke:#0e232e;stroke-width:1.58366;stroke-linecap:square;stroke-linejoin:round"
         d="m 170.10208,117.67645 -1.83967,21.60841 2.29791,11.37937"
         id="path2-6"
         sodipodi:nodetypes="ccc" />
      <circle
         style="fill:#ff4141;stroke-width:2;stroke-linecap:square;stroke-linejoin:round"
         id="path1-0"
         cx="171.57481"
         cy="80.578735"
         r="37.907063" />
      <rect
         style="fill:#dc0000;stroke-width:1.50314;stroke-linecap:square;stroke-linejoin:round"
         id="rect1"
         width="23.223902"
         height="8.1074867"
         x="159.0618"
         y="111.86125"
         rx="10"
         ry="1.8709587" />
      <g
         id="g14"
         transform="translate(64.796133,-21.320853)">
        <rect
           style="fill:#19aeff;stroke:#0e232e;stroke-width:1.52893;stroke-linecap:square;stroke-linejoin:round"
           id="rect2"
           width="17.705845"
           height="11.140756"
           x="83.300323"
           y="85.642448"
           rx="7.6446691"
           ry="2.532119" />
        <rect
           style="fill:#19aeff;stroke:#0e232e;stroke-width:1.52893;stroke-linecap:square;stroke-linejoin:round"
           id="rect3"
           width="17.705845"
           height="11.140756"
           x="108.28301"
           y="85.642448"
           rx="7.6446691"
           ry="2.532119" />
        <path
           style="fill:#19aeff;stroke:#0e232e;stroke-width:2;stroke-linecap:square;stroke-linejoin:round"
           d="m 108.51855,90.822477 h -8.32757"
           id="path3-6" />
        <path
           style="fill:#19aeff;stroke:#0e232e;stroke-width:2;stroke-linecap:square;stroke-linejoin:round"
           d="M 82.234676,90.822477 66.880734,100.45122"
           id="path4-1" />
        <path
           style="fill:#19aeff;stroke:#0e232e;stroke-width:2;stroke-linecap:square;stroke-linejoin:round"
           d="m 126.21462,89.78153 18.73701,10.40945"
           id="path5-6" />
      </g>
      <ellipse
         style="fill:#b50000;stroke:#b50000;stroke-width:2;stroke-linecap:square;stroke-linejoin:round"
         id="path6-0"
         cx="168.2493"
         cy="83.684494"
         rx="6.2456717"
         ry="11.060043" />
      <ellipse
         style="fill:#b50000;stroke:#b50000;stroke-width:2;stroke-linecap:square;stroke-linejoin:round"
         id="path7-6"
         cx="168.73801"
         cy="87.848289"
         rx="11.158387"
         ry="6.8962626" />
      <path
         style="fill:#0e232e;stroke:#0e232e;stroke-width:2;stroke-linecap:square;stroke-linejoin:round"
         d="m 152.63514,98.908324 1.04094,-8.06733 2.8626,2.34213 1.82166,-2.60236 1.30118,3.12283 3.12284,-3.12283 3.12283,2.8626 2.8626,-2.60237 3.12284,2.34213 3.90354,-2.34213 c 0,0 1.82166,5.20473 2.34213,3.90355 0.52047,-1.30118 3.12283,-4.94449 3.12283,-4.94449 l 2.60237,4.16378 -1.56142,6.505906 -1.30118,1.04094 -1.82166,-1.561416 -2.34212,1.561416 -0.52047,-2.081886 -3.12284,2.081886 -1.04095,-2.862596 -2.08189,2.602366 -2.34213,-3.383076 -1.04094,2.602366 -2.34213,-2.081886 -1.56141,2.602356 -2.34213,-2.342126 -4.42402,3.122836 v -3.643306 l -2.8626,3.903546 z"
         id="path8-9" />
      <path
         style="fill:#0e232e;stroke:#0e232e;stroke-width:2;stroke-linecap:square;stroke-linejoin:round"
         d="m 148.47136,61.694535 3.12283,-3.64331 1.30118,2.08189 1.56142,-2.602362 1.56142,2.862598 2.8626,-3.122834 0.26024,2.081889 3.12283,-2.862598 0.26024,2.862598 -1.56142,2.342129 -2.34213,-1.821656 -2.08189,2.081892 -0.78071,-1.56142 -2.8626,2.862601 -0.78071,-2.081892 z"
         id="path9-5" />
      <path
         style="fill:#0e232e;stroke:#0e232e;stroke-width:2;stroke-linecap:square;stroke-linejoin:round"
         d="m 187.24672,61.694535 -3.12284,-3.64331 -1.30118,2.08189 -1.56142,-2.602362 -1.56142,2.862598 -2.86259,-3.122834 -0.26024,2.081889 -3.12284,-2.862598 -0.26023,2.862598 1.56142,2.342129 2.34212,-1.821656 2.08189,2.081892 0.78071,-1.56142 2.8626,2.862601 0.78071,-2.081892 z"
         id="path10-6" />
      <g
         id="g13"
         transform="translate(65.398244,-21.181488)">
        <path
           style="fill:#804d00;stroke:#804d00;stroke-width:2;stroke-linecap:square;stroke-linejoin:round"
           d="m 114.50398,49.184665 c -3.38307,-0.780709 -18.997251,-1.561417 -20.038196,-1.561417 -1.040945,0 -5.204727,1.301181 -5.204727,1.301181 l -4.684252,9.888979 -1.301181,8.067326 c 0,0 5.204725,2.602365 6.505906,2.602365 1.301183,0 16.13465,-1.040945 16.13465,-1.040945 0,0 9.10827,1.040945 10.66969,1.301181 1.56142,0.260236 5.7252,2.602362 5.7252,0.780709 0,-1.821654 -0.52047,-7.286617 -0.52047,-8.587799 0,-1.301181 -2.34213,-10.409454 -2.34213,-10.409454 z"
           id="path11-8" />
        <path
           style="fill:#0e232e;stroke:#0e232e;stroke-width:2;stroke-linecap:square;stroke-linejoin:round"
           d="m 112.16726,69.222861 13.53229,7.026381 7.02638,-0.520472 -3.85582,-5.311235 -4.60186,-2.040442 z"
           id="path13"
           sodipodi:nodetypes="cccccc" />
        <path
           style="fill:#b88100;stroke:#b88100;stroke-width:2;stroke-linecap:square;stroke-linejoin:round"
           d="m 85.877985,66.880734 c 0,0 -4.944489,-1.561417 -7.546854,2.081892 -2.602362,3.643307 -0.520472,5.464961 -0.520472,5.464961 0,0 -5.7252,1.040945 2.862601,0.780709 8.587798,-0.260236 19.257487,-3.122835 21.33938,-3.122835 2.08189,0 9.10828,-2.342126 9.10828,-2.342126 z"
           id="path12-0" />
      </g>
      <circle
         style="fill:#0e232e;stroke:#0e232e;stroke-width:2;stroke-linecap:square;stroke-linejoin:round"
         id="circle14"
         cx="182.15025"
         cy="69.836197"
         r="1.5641264" />
      <circle
         style="fill:#0e232e;stroke:#0e232e;stroke-width:2;stroke-linecap:square;stroke-linejoin:round"
         id="circle14-2"
         cx="156.83867"
         cy="69.891739"
         r="1.5641264" />
      <path
         style="fill:none;stroke:#0e232e;stroke-width:1.53908;stroke-linecap:square;stroke-linejoin:round"
         d="m 170.43584,25.951882 10.21339,1.101444 1.40183,-3.504594 c 0,0 -1.40183,-2.303019 -1.80236,-2.803673 -0.40053,-0.500657 -1.50197,-1.6021 -2.9038,-1.702232 -1.40184,-0.10013 -4.8063,0.801049 -5.50722,1.902494 -0.70092,1.101443 -2.30302,4.405774 -2.30302,4.405774 l -7.10931,-6.108005 -3.90512,1.702231 v 2.603411 l 2.10276,2.603412 c 0,0 6.10799,0.600787 6.60866,0.500655 0.50065,-0.10013 3.20419,-0.700917 3.20419,-0.700917 z"
         id="path15" />
    </g>
    <g
       id="g22"
       transform="matrix(0.71455092,0.71455092,-0.57523865,0.57523865,214.97201,-138.8752)">
      <rect
         style="fill:#364e59;stroke:none;stroke-width:2.02529;stroke-linecap:square;stroke-linejoin:round"
         id="rect17"
         width="209.75047"
         height="23.681505"
         x="-7.6152263"
         y="154.93846" />
      <rect
         style="fill:#ffff3e;stroke:none;stroke-width:2;stroke-linecap:square;stroke-linejoin:round"
         id="rect18"
         width="24.982687"
         height="6.2456717"
         x="-3.1912088"
         y="164.04672" />
      <rect
         style="fill:#ffff3e;stroke:none;stroke-width:2;stroke-linecap:square;stroke-linejoin:round"
         id="rect19"
         width="24.982687"
         height="6.2456717"
         x="41.569435"
         y="164.04672" />
      <rect
         style="fill:#ffff3e;stroke:none;stroke-width:2;stroke-linecap:square;stroke-linejoin:round"
         id="rect20"
         width="24.982687"
         height="6.2456717"
         x="86.330086"
         y="164.04672" />
      <rect
         style="fill:#ffff3e;stroke:none;stroke-width:2;stroke-linecap:square;stroke-linejoin:round"
         id="rect21"
         width="24.982687"
         height="6.2456717"
         x="128.22813"
         y="164.04672" />
      <rect
         style="fill:#ffff3e;stroke:none;stroke-width:2;stroke-linecap:square;stroke-linejoin:round"
         id="rect22"
         width="24.982687"
         height="6.2456717"
         x="169.08524"
         y="164.04672" />
    </g>
  </g>
</svg>
